<svg xmlns="http://www.w3.org/2000/svg" xmlns:xlink="http://www.w3.org/1999/xlink" width="168" height="168" viewBox="0 0 84 84"><defs><path id="a" d="M150 688l42 42-42 42-42-42z"/><path id="c" d="M162.2 727.41c-.18 0-.36 0-.53-.02a5.29 5.29 0 0 1-2.85-1.1h-16.64a5.29 5.29 0 0 1-3.87 1.1v17.84c0 .43-.36.77-.8.77a.78.78 0 0 1-.8-.77v-18.18c-.26-.1-.52-.2-.76-.33a5.18 5.18 0 0 1-2.27-2.45 6.55 6.55 0 0 1-.64-3.02 5.61 5.61 0 0 1 1.36-3.58 5.47 5.47 0 0 1 4.21-1.67h23.78c1.77 0 3.23.58 4.21 1.67.83.92 1.3 2.16 1.36 3.58.04 1-.18 2.07-.64 3.02a5.18 5.18 0 0 1-3.03 2.78v18.18c0 .43-.36.77-.8.77a.78.78 0 0 1-.8-.77V727.4a6.1 6.1 0 0 1-.5.02zm-5.02-3.84h-13.36c-.07.4-.2.8-.39 1.18h14.13a4.24 4.24 0 0 1-.38-1.18zm1.28-3.83a3.87 3.87 0 0 1 2.7-1.08c1.01 0 1.97.38 2.7 1.08a3.02 3.02 0 0 1 0 4.37 2.8 2.8 0 0 1-3.87 0 2.2 2.2 0 0 1 0-3.19c.31-.3.82-.3 1.13 0 .31.3.31.79 0 1.08a.7.7 0 0 0 0 1.03c.44.43 1.16.43 1.6 0a1.52 1.52 0 0 0 0-2.21 2.25 2.25 0 0 0-3.15 0 2.8 2.8 0 0 0 .01 4.06c.59.57 1.36.9 2.23.99a4.6 4.6 0 0 0 2.5-.5c1.42-.74 2.12-2.64 2.06-4.06-.05-1.14-.53-3.78-3.98-3.78H138.6c-3.45 0-3.93 2.64-3.98 3.78-.06 1.42.64 3.32 2.07 4.06.76.4 1.65.57 2.49.5a3.64 3.64 0 0 0 2.23-.99 2.8 2.8 0 0 0 0-4.06 2.29 2.29 0 0 0-3.15 0c-.63.6-.63 1.6 0 2.2.45.44 1.17.44 1.61 0a.7.7 0 0 0 0-1.02.75.75 0 0 1 0-1.08c.31-.3.82-.3 1.13 0a2.2 2.2 0 0 1 0 3.2 2.8 2.8 0 0 1-3.86 0 3.02 3.02 0 0 1 0-4.38 3.92 3.92 0 0 1 5.4 0c.67.65 1.09 1.46 1.25 2.3h13.4c.16-.87.6-1.67 1.26-2.3zm-13.31 26.08a.78.78 0 0 1-.8-.76v-14.5c0-.5-.37-.9-.82-.9-.44 0-.82.4-.82.9v14.5c0 .42-.35.76-.8.76a.78.78 0 0 1-.79-.76v-14.5a2.42 2.42 0 0 1 2.41-2.44c1.33 0 2.42 1.09 2.42 2.43v14.5c0 .43-.36.77-.8.77zm6.97 0a.78.78 0 0 1-.8-.76v-14.5c0-.5-.37-.9-.82-.9-.44 0-.82.4-.82.9v14.5c0 .42-.36.76-.8.76a.78.78 0 0 1-.79-.76v-14.5a2.42 2.42 0 0 1 2.41-2.44c1.33 0 2.41 1.09 2.41 2.43v14.5c0 .43-.36.77-.8.77zm6.96 0a.78.78 0 0 1-.8-.76v-14.5c0-.5-.37-.9-.81-.9-.45 0-.82.4-.82.9v14.5c0 .42-.36.76-.8.76a.78.78 0 0 1-.8-.76v-14.5a2.43 2.43 0 0 1 2.42-2.44c1.33 0 2.4 1.09 2.4 2.43v14.5c0 .43-.35.77-.79.77z"/><clipPath id="b"><use fill="#fff" xlink:href="#a"/></clipPath></defs><g transform="translate(-108 -688)"><use fill="#fff" xlink:href="#a"/><use fill="#fff" fill-opacity="0" stroke="#fff" stroke-linecap="round" stroke-linejoin="round" stroke-miterlimit="50" stroke-width="2" clip-path="url(&quot;#b&quot;)" xlink:href="#a"/></g><g transform="translate(-108 -688)"><use fill="#fff" xlink:href="#c"/></g></svg>